<?xml version="1.0" encoding="UTF-8"?>
<svg width="1080" height="1920" viewBox="0 0 1080 1920" fill="none" xmlns="http://www.w3.org/2000/svg">
  <defs>
    <radialGradient id="bg" cx="0" cy="0" r="1" gradientUnits="userSpaceOnUse" gradientTransform="translate(540 720) rotate(90) scale(1200 780)">
      <stop offset="0" stop-color="#0B1430"/>
      <stop offset="0.55" stop-color="#060B18"/>
      <stop offset="1" stop-color="#04060D"/>
    </radialGradient>

    <linearGradient id="ecliptic" x1="0" y1="0" x2="1" y2="0">
      <stop offset="0" stop-color="#FFFFFF" stop-opacity="0"/>
      <stop offset="0.2" stop-color="#C9D6FF" stop-opacity="0.14"/>
      <stop offset="0.5" stop-color="#E6ECFF" stop-opacity="0.18"/>
      <stop offset="0.8" stop-color="#C9D6FF" stop-opacity="0.14"/>
      <stop offset="1" stop-color="#FFFFFF" stop-opacity="0"/>
    </linearGradient>

    <filter id="softGlow" x="-50%" y="-50%" width="200%" height="200%">
      <feGaussianBlur stdDeviation="6" result="blur"/>
      <feColorMatrix in="blur" type="matrix"
        values="1 0 0 0 0
                0 1 0 0 0
                0 0 1 0 0
                0 0 0 0.9 0" result="glow"/>
      <feMerge>
        <feMergeNode in="glow"/>
        <feMergeNode in="SourceGraphic"/>
      </feMerge>
    </filter>

    <filter id="fineNoise" x="0" y="0" width="100%" height="100%">
      <feTurbulence type="fractalNoise" baseFrequency="0.9" numOctaves="2" seed="19" stitchTiles="stitch" result="noise"/>
      <feColorMatrix in="noise" type="matrix"
        values="0 0 0 0 1
                0 0 0 0 1
                0 0 0 0 1
                0 0 0 0.06 0" result="grain"/>
      <feBlend mode="screen" in="SourceGraphic" in2="grain"/>
    </filter>

    <filter id="planetGlow" x="-80%" y="-80%" width="260%" height="260%">
      <feGaussianBlur stdDeviation="10" result="b"/>
      <feColorMatrix in="b" type="matrix"
        values="1 0 0 0 0
                0 1 0 0 0
                0 0 1 0 0
                0 0 0 0.7 0" result="g"/>
      <feMerge>
        <feMergeNode in="g"/>
        <feMergeNode in="SourceGraphic"/>
      </feMerge>
    </filter>

    <pattern id="grid" width="120" height="120" patternUnits="userSpaceOnUse">
      <path d="M120 0H0V120" stroke="#BFD3FF" stroke-opacity="0.06" stroke-width="1"/>
      <path d="M60 0V120M0 60H120" stroke="#BFD3FF" stroke-opacity="0.035" stroke-width="1"/>
    </pattern>

    <linearGradient id="dawnGrad" x1="0" y1="0" x2="0" y2="1">
      <stop offset="0" stop-color="#F9D7A6" stop-opacity="0.35"/>
      <stop offset="0.55" stop-color="#E9B980" stop-opacity="0.18"/>
      <stop offset="1" stop-color="#0A1328" stop-opacity="0"/>
    </linearGradient>

    <radialGradient id="sunGlow" cx="0" cy="0" r="1" gradientUnits="userSpaceOnUse"
      gradientTransform="translate(940 1660) rotate(0) scale(420 280)">
      <stop offset="0" stop-color="#FFE2B3" stop-opacity="0.45"/>
      <stop offset="0.6" stop-color="#FFCF8A" stop-opacity="0.22"/>
      <stop offset="1" stop-color="#FFB871" stop-opacity="0"/>
    </radialGradient>

    <linearGradient id="beltGrad" x1="0" y1="0" x2="1" y2="0">
      <stop offset="0" stop-color="#BFD3FF" stop-opacity="0"/>
      <stop offset="0.15" stop-color="#DDE8FF" stop-opacity="0.12"/>
      <stop offset="0.5" stop-color="#F2F6FF" stop-opacity="0.16"/>
      <stop offset="0.85" stop-color="#DDE8FF" stop-opacity="0.12"/>
      <stop offset="1" stop-color="#BFD3FF" stop-opacity="0"/>
    </linearGradient>
    <clipPath id="planisphereMask">
      <circle cx="540" cy="1080" r="520"/>
    </clipPath>
    <radialGradient id="diskShading" cx="0" cy="0" r="1" gradientUnits="userSpaceOnUse" gradientTransform="translate(540 1080) rotate(90) scale(520 520)">
      <stop offset="0" stop-color="#0A0F1A" stop-opacity="0.9"/>
      <stop offset="0.65" stop-color="#070B12" stop-opacity="0.9"/>
      <stop offset="1" stop-color="#05080E" stop-opacity="0.95"/>
    </radialGradient>
  </defs>

  <rect x="0" y="0" width="1080" height="1920" fill="url(#bg)"/>

  <rect x="0" y="0" width="1080" height="1920" fill="url(#grid)" opacity="0.65"/>

  <g filter="url(#fineNoise)" opacity="1">
    <rect x="0" y="0" width="1080" height="1920" fill="transparent"/>
  </g>

  <g clip-path="url(#planisphereMask)">
    <circle cx="540" cy="1080" r="520" fill="url(#diskShading)"/>
    <circle cx="540" cy="1080" r="520" fill="none" stroke="#365859" stroke-opacity="0.55" stroke-width="2"/>
    <g>
      <circle cx="540" cy="1080" r="440" fill="none" stroke="#365859" stroke-opacity="0.3" stroke-width="1"/>
      <circle cx="540" cy="1080" r="360" fill="none" stroke="#365859" stroke-opacity="0.28" stroke-width="1"/>
      <circle cx="540" cy="1080" r="280" fill="none" stroke="#365859" stroke-opacity="0.26" stroke-width="1"/>
      <circle cx="540" cy="1080" r="200" fill="none" stroke="#365859" stroke-opacity="0.24" stroke-width="1"/>
      <circle cx="540" cy="1080" r="120" fill="none" stroke="#365859" stroke-opacity="0.22" stroke-width="1"/>
      <circle cx="540" cy="1080" r="40"  fill="none" stroke="#365859" stroke-opacity="0.22" stroke-width="1"/>
    </g>
    <g>
      <path d="M540 560L540 1600" stroke="#B08A3C" stroke-opacity="0.75" stroke-width="1.5"/>
      <text x="552" y="600" fill="#B08A3C" fill-opacity="0.85" font-family="serif" font-size="16">南中天</text>
    </g>
    <g>
      <g transform="rotate(-23,540,1080)">
        <ellipse cx="540" cy="1080" rx="500" ry="120" fill="none" stroke="#C5B27A" stroke-opacity="0.35" stroke-width="3"/>
        <ellipse cx="540" cy="1080" rx="500" ry="48"  fill="#C5B27A" fill-opacity="0.08"/>
      </g>
      <text x="1010" y="1010" fill="#C5B27A" fill-opacity="0.8" font-family="serif" font-size="14">黄道</text>
    </g>
    <g>
      <g>
        <path d="M540 1080 L 655 1015 L 610 1180 L 470 1165 Z" fill="none" stroke="#7C9C8E" stroke-opacity="0.7" stroke-width="2"/>
        <text x="570" y="1058" fill="#E9D188" fill-opacity="0.9" font-family="serif" font-size="18">房</text>
      </g>
      <g>
        <circle cx="600" cy="1090" r="9" fill="#2DBE7C" opacity="0.28"/>
        <circle cx="600" cy="1090" r="3.2" fill="#FFFFFF">
          <animate attributeName="opacity" values="0.85;0.95;0.8;0.92;0.88" dur="3.6s" repeatCount="indefinite"/>
        </circle>
        <circle cx="580" cy="1110" r="9" fill="#E84C3D" opacity="0.26"/>
        <circle cx="580" cy="1110" r="3.0" fill="#FFFFFF">
          <animate attributeName="opacity" values="0.82;0.94;0.78;0.9;0.84" dur="2.8s" begin="0.3s" repeatCount="indefinite"/>
        </circle>
        <circle cx="620" cy="1115" r="9" fill="#E6E8FA" opacity="0.28"/>
        <circle cx="620" cy="1115" r="3.1" fill="#FFFFFF">
          <animate attributeName="opacity" values="0.86;0.96;0.8;0.92;0.88" dur="3.2s" begin="0.2s" repeatCount="indefinite"/>
        </circle>
        <circle cx="560" cy="1075" r="9" fill="#2E6E8E" opacity="0.24"/>
        <circle cx="560" cy="1075" r="2.9" fill="#FFFFFF">
          <animate attributeName="opacity" values="0.82;0.94;0.78;0.9;0.84" dur="2.6s" begin="0.5s" repeatCount="indefinite"/>
        </circle>
        <circle cx="640" cy="1088" r="9" fill="#D4AF37" opacity="0.24"/>
        <circle cx="640" cy="1088" r="3.0" fill="#FFFFFF">
          <animate attributeName="opacity" values="0.8;0.92;0.76;0.88;0.82" dur="3.8s" begin="0.6s" repeatCount="indefinite"/>
        </circle>
        <path d="M660 1050 C 700 1020, 760 1040, 780 1080" stroke="#E9D188" stroke-opacity="0.7" stroke-width="1"/>
        <text x="784" y="1086" fill="#E9D188" fill-opacity="0.9" font-family="serif" font-size="14">五纬聚房 &lt;20°</text>
      </g>
    </g>
    <g>
      <circle cx="540" cy="600" r="6" fill="#FFFFFF"/>
      <circle cx="540" cy="600" r="16" fill="#2DBE7C" opacity="0.22"/>
      <text x="552" y="596" fill="#C5B27A" fill-opacity="0.9" font-family="serif" font-size="14">岁星鼎</text>
    </g>
  </g>

  <text x="540" y="120" text-anchor="middle" fill="#C5B27A" fill-opacity="0.9" font-family="serif" font-size="26">「甲子黎明」武王克商天象坐标图</text>
  <g>
    <text x="80" y="140" fill="#C5B27A" fill-opacity="0.85" font-family="serif" font-size="14">UTC -1044-01-09 05:30</text>
    <text x="80" y="164" fill="#C5B27A" fill-opacity="0.85" font-family="serif" font-size="14">干支 甲子日 · 月相 朔</text>
  </g>
  <g>
    <text x="760" y="140" fill="#C5B27A" fill-opacity="0.85" font-family="serif" font-size="14">观测点 牧野（商邑郊外）</text>
    <text x="760" y="164" fill="#C5B27A" fill-opacity="0.85" font-family="serif" font-size="14">Lat 35°26' N · Lon 114°15' E</text>
  </g>
  <g opacity="0.7">
    <path d="M420 1760 C 460 1700, 620 1700, 660 1760 L 700 1760 C 700 1720, 640 1680, 540 1680 C 440 1680, 380 1720, 380 1760 Z" fill="none" stroke="#C5B27A" stroke-opacity="0.6" stroke-width="1.5"/>
    <path d="M420 1760 L 660 1760" stroke="#C5B27A" stroke-opacity="0.6" stroke-width="3"/>
    <text x="540" y="1790" text-anchor="middle" fill="#E9D188" fill-opacity="0.9" font-family="serif" font-size="14">利簋 · 岁鼎</text>
  </g>
  <!-- Horizon + Dawn -->
  <g id="horizon">
    <rect x="0" y="1580" width="1080" height="340" fill="url(#dawnGrad)" opacity="0.6"/>
    <ellipse cx="940" cy="1660" rx="420" ry="280" fill="url(#sunGlow)" opacity="0.85"/>
    <path d="M0 1600 C 180 1588, 360 1596, 540 1608 C 720 1618, 900 1628, 1080 1615 L 1080 1920 L 0 1920 Z"
          fill="#0B1122" fill-opacity="0.75"/>
    <path d="M0 1612 C 180 1602, 360 1610, 540 1622 C 720 1630, 900 1640, 1080 1628"
          stroke="#FFE2B3" stroke-opacity="0.14" stroke-width="2"/>
  </g>

  <g id="equatorialGrid" opacity="0.26">
    <path d="M-120 1040C140 960 420 960 700 1040C920 1100 1160 1220 1300 1360" stroke="#DDE8FF" stroke-opacity="0.32" stroke-width="1.5"/>
    <path d="M-160 960C100 880 420 870 740 960C980 1020 1200 1140 1360 1300" stroke="#DDE8FF" stroke-opacity="0.22" stroke-width="1" stroke-dasharray="6 10"/>
    <path d="M-140 1000C120 920 420 910 720 1000C960 1060 1200 1180 1340 1340" stroke="#DDE8FF" stroke-opacity="0.24" stroke-width="1" stroke-dasharray="4 8"/>
    <path d="M-100 1080C160 1000 420 980 680 1080C900 1150 1140 1260 1280 1400" stroke="#DDE8FF" stroke-opacity="0.24" stroke-width="1" stroke-dasharray="4 8"/>
    <path d="M-60 1160C200 1080 420 1050 640 1160C840 1230 1080 1340 1220 1480" stroke="#DDE8FF" stroke-opacity="0.22" stroke-width="1" stroke-dasharray="6 10"/>
    <path d="M260 780C300 930 320 1100 360 1300" stroke="#DDE8FF" stroke-opacity="0.22" stroke-width="1"/>
    <path d="M340 770C380 920 400 1090 440 1290" stroke="#DDE8FF" stroke-opacity="0.22" stroke-width="1"/>
    <path d="M420 760C460 910 480 1080 520 1280" stroke="#DDE8FF" stroke-opacity="0.24" stroke-width="1.2"/>
    <path d="M500 760C540 910 560 1080 600 1280" stroke="#DDE8FF" stroke-opacity="0.24" stroke-width="1.2"/>
    <path d="M580 770C620 920 640 1090 680 1290" stroke="#DDE8FF" stroke-opacity="0.22" stroke-width="1"/>
    <path d="M660 800C700 950 720 1120 760 1320" stroke="#DDE8FF" stroke-opacity="0.22" stroke-width="1"/>
    <path d="M740 830C780 980 800 1150 840 1350" stroke="#DDE8FF" stroke-opacity="0.22" stroke-width="1"/>
    <path d="M820 860C860 1010 880 1180 920 1380" stroke="#DDE8FF" stroke-opacity="0.22" stroke-width="1"/>
    <text x="260" y="760" fill="#DDE8FF" fill-opacity="0.7" font-family="serif" font-size="14">0h</text>
    <text x="340" y="750" fill="#DDE8FF" fill-opacity="0.7" font-family="serif" font-size="14">2h</text>
    <text x="420" y="740" fill="#DDE8FF" fill-opacity="0.7" font-family="serif" font-size="14">4h</text>
    <text x="500" y="740" fill="#DDE8FF" fill-opacity="0.7" font-family="serif" font-size="14">6h</text>
    <text x="580" y="750" fill="#DDE8FF" fill-opacity="0.7" font-family="serif" font-size="14">8h</text>
    <text x="660" y="780" fill="#DDE8FF" fill-opacity="0.7" font-family="serif" font-size="14">10h</text>
    <text x="740" y="810" fill="#DDE8FF" fill-opacity="0.7" font-family="serif" font-size="14">12h</text>
    <text x="820" y="840" fill="#DDE8FF" fill-opacity="0.7" font-family="serif" font-size="14">14h</text>
    <text x="40" y="962" fill="#DDE8FF" fill-opacity="0.7" font-family="serif" font-size="14">+30°</text>
    <text x="40" y="1002" fill="#DDE8FF" fill-opacity="0.7" font-family="serif" font-size="14">+15°</text>
    <text x="40" y="1046" fill="#DDE8FF" fill-opacity="0.8" font-family="serif" font-size="14">赤道 0°</text>
    <text x="40" y="1128" fill="#DDE8FF" fill-opacity="0.7" font-family="serif" font-size="14">−15°</text>
    <text x="40" y="1210" fill="#DDE8FF" fill-opacity="0.7" font-family="serif" font-size="14">−30°</text>
  </g>

  <g opacity="0.14">
    <path d="M-140 980C120 900 420 900 720 980C960 1040 1200 1160 1340 1320" stroke="url(#beltGrad)" stroke-width="120" stroke-linecap="round"/>
    <path d="M-80 1080C180 910 410 860 650 910C860 953 1010 1050 1180 1180" stroke="#F2F6FF" stroke-opacity="0.28" stroke-width="1" stroke-dasharray="6 10" stroke-linecap="round"/>
    <text x="1180" y="1188" fill="#F2F6FF" fill-opacity="0.7" font-family="serif" font-size="14">黄道</text>
  </g>

  <g opacity="0.18">
    <path d="M-120 940C140 860 420 860 700 940C920 1000 1160 1120 1300 1260" stroke="#DDE8FF" stroke-opacity="0.26" stroke-width="1"/>
    <path d="M-160 1020C100 940 420 930 740 1020C980 1080 1200 1200 1360 1360" stroke="#DDE8FF" stroke-opacity="0.22" stroke-width="1"/>
    <path d="M-200 1100C60 1020 420 1000 780 1100C1040 1170 1240 1280 1420 1460" stroke="#DDE8FF" stroke-opacity="0.18" stroke-width="1"/>
  </g>

  <g opacity="0.16">
    <path d="M260 780C300 930 320 1100 360 1300" stroke="#DDE8FF" stroke-opacity="0.18" stroke-width="1"/>
    <path d="M460 760C500 910 520 1080 560 1280" stroke="#DDE8FF" stroke-opacity="0.2" stroke-width="1"/>
    <path d="M660 800C700 950 720 1120 760 1320" stroke="#DDE8FF" stroke-opacity="0.18" stroke-width="1"/>
    <path d="M860 840C900 990 920 1160 960 1360" stroke="#DDE8FF" stroke-opacity="0.18" stroke-width="1"/>
  </g>

  <g opacity="0.3">
    <text x="1010" y="1628" fill="#FFE2B3" fill-opacity="0.6" font-family="serif" font-size="18">東</text>
  </g>

  <g opacity="0.18" filter="url(#softGlow)">
    <path d="M-80 1080C180 910 410 860 650 910C860 953 1010 1050 1180 1180" stroke="url(#ecliptic)" stroke-width="56" stroke-linecap="round"/>
    <path d="M-80 1080C180 910 410 860 650 910C860 953 1010 1050 1180 1180" stroke="#E8F0FF" stroke-opacity="0.12" stroke-width="2" stroke-linecap="round"/>
  </g>

  <g opacity="0.16">
    <path d="M270 880C320 820 390 790 470 805C540 818 600 865 655 932C710 1000 780 1060 860 1100" stroke="#BFD3FF" stroke-opacity="0.22" stroke-width="2"/>
    <path d="M220 1000C300 965 380 948 465 960C560 974 650 1020 750 1090" stroke="#BFD3FF" stroke-opacity="0.18" stroke-width="2"/>
  </g>

  <g opacity="0.22" filter="url(#softGlow)">
    <path d="M360 860C470 820 600 850 700 940C790 1020 880 1120 900 1225C920 1320 860 1410 760 1470C650 1540 520 1548 420 1500C300 1440 245 1310 255 1180C265 1040 290 920 360 860Z" fill="#7AAEC8" fill-opacity="0.07" stroke="#C9D6FF" stroke-opacity="0.12" stroke-width="2"/>
  </g>

  <g opacity="0.85">
    <circle cx="120" cy="220" r="1.6" fill="#FFFFFF" fill-opacity="0.85"/>
    <circle cx="190" cy="360" r="1.2" fill="#DDE8FF" fill-opacity="0.7"/>
    <circle cx="320" cy="240" r="1.4" fill="#FFFFFF" fill-opacity="0.8"/>
    <circle cx="410" cy="330" r="1.1" fill="#C9D6FF" fill-opacity="0.65"/>
    <circle cx="520" cy="210" r="1.8" fill="#FFFFFF" fill-opacity="0.9"/>
    <circle cx="670" cy="280" r="1.2" fill="#DDE8FF" fill-opacity="0.75"/>
    <circle cx="820" cy="240" r="1.4" fill="#FFFFFF" fill-opacity="0.85"/>
    <circle cx="940" cy="360" r="1.1" fill="#C9D6FF" fill-opacity="0.6"/>
    <circle cx="90" cy="520" r="1.1" fill="#C9D6FF" fill-opacity="0.65"/>
    <circle cx="210" cy="620" r="1.3" fill="#FFFFFF" fill-opacity="0.8"/>
    <circle cx="360" cy="560" r="1.0" fill="#DDE8FF" fill-opacity="0.7"/>
    <circle cx="510" cy="640" r="1.4" fill="#FFFFFF" fill-opacity="0.85"/>
    <circle cx="660" cy="540" r="1.1" fill="#C9D6FF" fill-opacity="0.6"/>
    <circle cx="780" cy="650" r="1.3" fill="#FFFFFF" fill-opacity="0.82"/>
    <circle cx="960" cy="560" r="1.0" fill="#DDE8FF" fill-opacity="0.68"/>
    <circle cx="130" cy="820" r="1.2" fill="#FFFFFF" fill-opacity="0.8"/>
    <circle cx="260" cy="770" r="1.0" fill="#C9D6FF" fill-opacity="0.6"/>
    <circle cx="890" cy="810" r="1.1" fill="#DDE8FF" fill-opacity="0.65"/>
    <circle cx="980" cy="980" r="1.3" fill="#FFFFFF" fill-opacity="0.78"/>
    <circle cx="80" cy="1120" r="1.0" fill="#C9D6FF" fill-opacity="0.6"/>
    <circle cx="160" cy="1320" r="1.2" fill="#FFFFFF" fill-opacity="0.75"/>
    <circle cx="330" cy="1460" r="1.1" fill="#DDE8FF" fill-opacity="0.65"/>
    <circle cx="540" cy="1580" r="1.4" fill="#FFFFFF" fill-opacity="0.8"/>
    <circle cx="760" cy="1480" r="1.2" fill="#C9D6FF" fill-opacity="0.62"/>
    <circle cx="920" cy="1560" r="1.3" fill="#FFFFFF" fill-opacity="0.78"/>
    <circle cx="980" cy="1760" r="1.1" fill="#DDE8FF" fill-opacity="0.6"/>
  </g>

  <g opacity="0.92" filter="url(#softGlow)">
    <circle cx="520" cy="1080" r="2.6" fill="#F2F6FF" fill-opacity="0.92"/>
    <circle cx="655" cy="1015" r="2.1" fill="#F2F6FF" fill-opacity="0.88"/>
    <circle cx="610" cy="1180" r="2.2" fill="#F2F6FF" fill-opacity="0.9"/>
    <circle cx="470" cy="1165" r="2.0" fill="#F2F6FF" fill-opacity="0.86"/>

    <path d="M520 1080L655 1015L610 1180L470 1165Z" stroke="#DDE8FF" stroke-opacity="0.36" stroke-width="2" stroke-linejoin="round"/>
    <path d="M520 1080L610 1180" stroke="#DDE8FF" stroke-opacity="0.18" stroke-width="2" stroke-linecap="round"/>
    <path d="M655 1015L470 1165" stroke="#DDE8FF" stroke-opacity="0.12" stroke-width="2" stroke-linecap="round"/>
    <text x="530" y="1068" fill="#F2F6FF" fill-opacity="0.7" font-family="serif" font-size="20">房</text>
  </g>

  <g id="scorpius" opacity="0.36" filter="url(#softGlow)">
    <polyline points="620,980 680,1040 740,1100 800,1180 860,1260 900,1360" fill="none" stroke="#DDE8FF" stroke-width="1.5" stroke-opacity="0.6"/>
    <circle cx="680" cy="1080" r="3.6" fill="#FFAA55" fill-opacity="0.9"/>
    <text x="690" y="1072" fill="#FFCC88" fill-opacity="0.9" font-family="serif" font-size="14">心</text>
    <text x="900" y="1378" fill="#DDE8FF" fill-opacity="0.7" font-family="serif" font-size="14">天蝎</text>
  </g>

  <!-- Five Planets: white core + colored glow; subtle twinkle -->
  <g filter="url(#planetGlow)">
    <!-- Wood (Jupiter) -->
    <g>
      <circle cx="820" cy="1500" r="10" fill="#2DBE7C" opacity="0.24">
        <animate attributeName="r" values="10;13;9;12;10" dur="3.6s" repeatCount="indefinite"/>
        <animate attributeName="opacity" values="0.22;0.32;0.18;0.28;0.24" dur="3.6s" repeatCount="indefinite"/>
      </circle>
      <circle cx="820" cy="1500" r="3.2" fill="#FFFFFF">
        <animate attributeName="opacity" values="0.85;0.95;0.8;0.92;0.88" dur="3.6s" repeatCount="indefinite"/>
      </circle>
    </g>
    <!-- Fire (Mars) -->
    <g>
      <circle cx="880" cy="1480" r="10" fill="#E84C3D" opacity="0.24">
        <animate attributeName="r" values="10;12.5;9;11.5;10" dur="2.8s" begin="0.4s" repeatCount="indefinite"/>
        <animate attributeName="opacity" values="0.2;0.3;0.16;0.26;0.22" dur="2.8s" begin="0.4s" repeatCount="indefinite"/>
      </circle>
      <circle cx="880" cy="1480" r="3.0" fill="#FFFFFF">
        <animate attributeName="opacity" values="0.82;0.94;0.78;0.9;0.84" dur="2.8s" begin="0.4s" repeatCount="indefinite"/>
      </circle>
    </g>
    <!-- Metal (Venus) -->
    <g>
      <circle cx="940" cy="1460" r="10" fill="#E6E8FA" opacity="0.26">
        <animate attributeName="r" values="10;12.2;9.4;11.6;10" dur="3.2s" begin="0.2s" repeatCount="indefinite"/>
        <animate attributeName="opacity" values="0.22;0.34;0.18;0.28;0.26" dur="3.2s" begin="0.2s" repeatCount="indefinite"/>
      </circle>
      <circle cx="940" cy="1460" r="3.1" fill="#FFFFFF">
        <animate attributeName="opacity" values="0.86;0.96;0.8;0.92;0.88" dur="3.2s" begin="0.2s" repeatCount="indefinite"/>
      </circle>
    </g>
    <!-- Earth (Saturn as Earth-color proxy here is 土) -->
    <g>
      <circle cx="1000" cy="1500" r="10" fill="#D4AF37" opacity="0.22">
        <animate attributeName="r" values="10;12.8;9.2;11.4;10" dur="3.8s" begin="0.6s" repeatCount="indefinite"/>
        <animate attributeName="opacity" values="0.18;0.3;0.14;0.26;0.22" dur="3.8s" begin="0.6s" repeatCount="indefinite"/>
      </circle>
      <circle cx="1000" cy="1500" r="3.0" fill="#FFFFFF">
        <animate attributeName="opacity" values="0.8;0.92;0.76;0.88;0.82" dur="3.8s" begin="0.6s" repeatCount="indefinite"/>
      </circle>
    </g>
    <!-- Water (Mercury) -->
    <g>
      <circle cx="760" cy="1540" r="10" fill="#2E6E8E" opacity="0.22">
        <animate attributeName="r" values="10;12;9.2;11;10" dur="2.6s" begin="0.9s" repeatCount="indefinite"/>
        <animate attributeName="opacity" values="0.18;0.28;0.14;0.24;0.22" dur="2.6s" begin="0.9s" repeatCount="indefinite"/>
      </circle>
      <circle cx="760" cy="1540" r="2.9" fill="#FFFFFF">
        <animate attributeName="opacity" values="0.82;0.94;0.78;0.9;0.84" dur="2.6s" begin="0.9s" repeatCount="indefinite"/>
      </circle>
    </g>
  </g>

  <g opacity="0.22">
    <path d="M390 930C470 900 570 900 665 940" stroke="#DDE8FF" stroke-opacity="0.22" stroke-width="2" stroke-linecap="round"/>
    <path d="M330 1110C430 1060 560 1045 720 1080" stroke="#DDE8FF" stroke-opacity="0.16" stroke-width="2" stroke-linecap="round"/>
  </g>

  <g opacity="0.6">
    <text x="500" y="1020" fill="#F2F6FF" fill-opacity="0.7" font-family="serif" font-size="14">角</text>
    <text x="520" y="1030" fill="#F2F6FF" fill-opacity="0.7" font-family="serif" font-size="14">亢</text>
    <text x="540" y="1040" fill="#F2F6FF" fill-opacity="0.7" font-family="serif" font-size="14">氐</text>
    <text x="560" y="1052" fill="#F2F6FF" fill-opacity="0.9" font-family="serif" font-size="16">房</text>
    <text x="610" y="1060" fill="#F2F6FF" fill-opacity="0.8" font-family="serif" font-size="14">心</text>
    <text x="650" y="1080" fill="#F2F6FF" fill-opacity="0.7" font-family="serif" font-size="14">尾</text>
  </g>

  <g opacity="0.36">
    <text x="140" y="980" fill="#DDE8FF" fill-opacity="0.6" font-family="serif" font-size="18">♈</text>
    <text x="220" y="940" fill="#DDE8FF" fill-opacity="0.6" font-family="serif" font-size="18">♉</text>
    <text x="300" y="920" fill="#DDE8FF" fill-opacity="0.6" font-family="serif" font-size="18">♊</text>
    <text x="380" y="910" fill="#DDE8FF" fill-opacity="0.6" font-family="serif" font-size="18">♋</text>
    <text x="460" y="905" fill="#DDE8FF" fill-opacity="0.6" font-family="serif" font-size="18">♌</text>
    <text x="540" y="910" fill="#DDE8FF" fill-opacity="0.6" font-family="serif" font-size="18">♍</text>
    <text x="620" y="925" fill="#DDE8FF" fill-opacity="0.6" font-family="serif" font-size="18">♎</text>
    <text x="700" y="945" fill="#DDE8FF" fill-opacity="0.6" font-family="serif" font-size="18">♏</text>
    <text x="780" y="980" fill="#DDE8FF" fill-opacity="0.6" font-family="serif" font-size="18">♐</text>
    <text x="860" y="1030" fill="#DDE8FF" fill-opacity="0.6" font-family="serif" font-size="18">♑</text>
    <text x="940" y="1100" fill="#DDE8FF" fill-opacity="0.6" font-family="serif" font-size="18">♒</text>
    <text x="1020" y="1180" fill="#DDE8FF" fill-opacity="0.6" font-family="serif" font-size="18">♓</text>
  </g>
</svg>
